<?xml version="1.0"?>
<!-- Created with xTool Creative Space (https://www.xtool.com/pages/software) -->
<svg xmlns="http://www.w3.org/2000/svg" xmlns:xlink="http://www.w3.org/1999/xlink" xmlns:xcs="https://www.xtool.com/pages/software" version="1.1" preserveAspectRatio="xMinYMin meet" width="341.36122131347656mm" height="44.8052062988281mm" viewBox="174.99400329589844 121.44200134277347 341.36122131347656 44.8052062988281" xcs:version="2.7.22"><style></style>
<path transform="matrix(1,0,0,1,0,0)" stroke="none" fill="#000000ff" data-view-type="laser" d="M206.9577499740117,137.85917843022662C206.84612497401173,138.33836543022662 206.75205597401168,138.73258443022658 206.5690849740117,139.1495434302266C206.3526059740117,139.61961743022664 206.0248529740117,139.8342564302266 205.66738397401173,140.22225643022665C205.21660897401173,140.48839543022663 204.96735497401167,140.6807674302266 204.30122997401168,140.83634643022663C203.85840097401172,140.9664394302266 203.3127009740117,141.04796943022663 202.7757229740117,140.93739843022664C202.26358697401176,141.13433943022662 201.6564829740117,140.8767204302266 200.97231997401173,141.06177143022663C200.44593397401172,140.89409743022662 200.2543069740117,139.84664643022666 200.8479479740117,139.77140643022665C201.23117097401172,139.5853244302266 201.8272609740117,139.55625043022664 202.13831297401168,139.74031343022665C202.8069599740117,139.49834443022667 203.17251497401173,139.70766543022663 203.7240629740117,139.67812643022663C204.1052319740117,139.56877243022663 204.60316397401175,139.46980443022665 204.9833349740117,139.18063643022663C205.3864519740117,138.7471764302266 205.62938997401173,138.22915643022662 205.5274649740117,137.6259794302266C205.41478397401164,137.0207254302267 205.2017269740117,136.61747843022664 204.68795097401167,136.2734284302266C204.04388697401174,136.34135143022664 203.5705559740117,135.3129764302266 204.1127269740117,134.84314343022663C204.0674089740117,134.1495954302266 204.13685597401172,133.51981043022664 203.73960997401173,133.13302143022662C203.4941279740117,132.77543443022662 202.7567169740117,132.42313343022664 202.12276697401165,132.69771743022662C201.72383197401174,132.59759743022664 201.0921949740117,132.7284374302266 200.9256809740117,132.0603074302266C200.9137099740117,131.5129924302266 201.55865497401172,130.8683364302266 201.09669297401172,130.38127843022662C201.29722797401172,129.84436343022662 200.15562797401174,129.46418743022662 200.50592297401167,128.87326143022665C200.80654397401176,128.48369843022664 201.3997639740117,128.1108884302266 201.27936497401168,127.68200543022664C201.56376197401173,127.14631043022663 201.31495097401168,126.50514243022664 201.08114597401175,126.21479743022661C200.61513297401171,125.65092343022664 200.0822649740117,125.44274743022663 199.52648997401172,125.32864343022663C198.9916099740117,125.47616443022662 198.4685419740117,125.16442743022662 197.95628597401165,125.37528343022663C197.51716897401172,125.42694443022663 196.8184919740117,125.20644743022663 196.4638149740117,125.37528343022663C195.5444999740117,125.30048843022664 195.72706297401174,124.62767443022665 195.4377419740117,124.0382784302266C195.47038997401168,123.73092543022662 194.8787789740117,123.03772243022664 194.41166797401172,123.07439043022663C193.9593439740117,122.65794943022664 193.35783797401172,122.8548884302266 192.77733497401172,122.87034243022666C192.29045097401166,122.80575343022664 191.81381597401176,122.76380143022664 191.3800869740117,122.82564543022664C190.81455697401174,122.77507243022663 190.14910397401167,122.88008943022663 189.6583049740117,122.78677943022663C189.05724497401167,122.93022743022664 188.31237897401166,122.77009743022666 187.86656297401166,122.84119243022664C187.4153279740117,122.91433843022662 186.82347897401164,122.76546443022664 186.28081197401173,122.85673843022664C185.77354497401168,122.91842743022661 185.05159497401166,122.97789343022663 184.74170197401173,123.4475084302266C184.1361629740117,123.80405443022664 184.0384269740117,124.3608644302266 184.05765297401166,124.9399794302266C183.64832897401172,125.5970854302266 183.2168139740117,125.47825743022665 182.51854297401172,125.35973643022663C182.0881559740117,125.36673243022662 181.05198997401172,125.46518843022662 180.77732697401166,125.85852743022664C180.4834389740117,125.89117543022661 180.15424197401174,126.43698343022663 180.0466379740117,126.61900843022664C179.9947589740117,127.00739743022663 179.7624589740117,127.39874543022663 180.07773097401176,127.90937343022662C180.4134139740117,128.35056243022666 180.15459397401173,129.18862143022662 179.47141497401174,129.0442734302266C179.09573197401167,129.28115143022663 178.64839397401167,128.95453843022662 178.3209689740117,129.19973943022663C177.6036919740117,129.1627694302266 177.32537297401163,129.75426443022664 176.79740497401173,130.10144043022663C176.70768597401172,130.54422343022662 176.44300397401173,131.21726243022664 176.71967197401167,131.70273643022665C177.0437859740117,132.24011743022663 177.61323797401172,132.72114243022662 178.27432897401167,132.8065434302266C178.52547197401174,133.30632443022665 178.67943997401176,133.45518143022665 178.3753819740117,133.99779943022662C178.02792897401167,134.4822794302266 178.2231189740117,135.0912854302266 178.4919809740117,135.58937943022661C178.6582559740117,136.45785843022662 177.8457659740117,136.53931643022662 177.43481497401172,137.00411643022662C177.18595397401174,137.54156343022663 176.9133729740117,138.13883943022665 177.3415349740117,138.71423943022666C177.58585697401173,139.17531443022665 177.79357997401166,139.52755843022666 178.3676089740117,139.56930043022663C178.83928497401166,140.14888043022665 179.85972297401173,139.37237843022666 179.8756259740117,140.39326843022667C180.17700597401168,140.78038343022664 179.47939097401172,141.49302843022662 178.8961919740117,141.17059743022662C178.40893897401168,141.21313243022666 177.8356859740117,140.8747464302266 177.31044197401167,140.70420043022668C176.8516579740117,140.47452343022664 176.54931497401176,140.00801243022664 176.2066359740117,139.72476643022662C175.91143297401172,139.1626114302266 175.70986997401167,138.3533394302266 175.77133197401167,137.8280854302266C175.81301197401172,137.44276743022664 176.0265489740117,136.55754143022665 176.15999597401174,136.32006743022663C176.59378197401165,135.82075543022665 177.0931369740117,135.5293724302266 176.7818589740117,134.9364234302266C176.5700659740117,134.61142843022662 177.1497849740117,133.75881743022663 176.66720297401173,133.69852743022665C176.1960529740117,133.3328394302266 175.64670697401172,132.8147594302266 175.4603999740117,132.40233243022664C175.10897597401174,132.02097643022663 175.30914797401164,131.49807043022662 174.99400297401175,131.00314143022666C175.28908597401175,130.4238014302266 175.04222897401172,130.06831343022662 175.55367997401174,129.4484844302266C175.77754597401173,129.02246643022661 176.07843897401176,128.64579343022663 176.61084597401174,128.38354443022658C177.0021439740117,128.08143043022662 177.55552597401174,127.98890043022664 177.91675797401172,127.84718743022665C178.6859699740117,127.9201324302266 178.37537597401172,127.25962343022661 178.4764349740117,126.69674143022664C178.7178499740117,126.14578943022661 178.78834697401166,125.5920864302266 179.30040297401172,125.21981743022661C179.69992197401172,124.8730754302266 180.12558997401172,124.43027243022664 180.6374079740117,124.39584943022663C180.96139397401174,124.08278043022662 181.4334469740117,124.18736643022663 181.89667997401173,124.02273143022666C182.8046449740117,124.3336414302266 182.82308897401168,123.56585943022665 183.12485897401166,122.96556443022664C183.48940697401176,122.61632943022661 183.8714889740117,122.10386943022664 184.4307709740117,121.84621143022662C185.0312789740117,121.63439743022664 185.46958597401166,121.56504243022664 186.09425397401168,121.47309443022661C186.6205309740117,121.57682043022663 187.1467299740117,121.34113443022665 187.6644569740117,121.5819204302266C188.2519319740117,121.42506643022665 189.10450797401174,121.52789543022661 189.54559197401164,121.44200043022661C190.01456197401166,121.64705043022664 190.57615697401172,121.41451443022663 191.02640297401172,121.52945043022663C191.56553797401168,121.60634343022664 192.11265697401166,121.46415443022664 192.7637319740117,121.51965643022663C193.19079797401167,121.48839143022664 193.83547797401167,121.55017443022663 194.33393497401173,121.65957543022665C194.87711397401173,121.69101043022664 195.17270097401172,121.98793743022662 195.57766097401168,122.31253143022664C196.0593309740117,122.4440864302266 196.35400697401175,123.09237543022664 196.60956397401173,123.57180343022665C196.69668697401167,124.32525043022662 197.32512297401166,123.97352643022663 197.8474599740117,124.14702643022662C198.34786697401174,124.13132443022664 198.72943197401176,124.09794543022664 199.3399309740117,124.10038643022662C199.88651397401168,124.09572243022663 200.4429489740117,124.31568343022664 201.0034139740117,124.50459743022662C201.3415299740117,124.9197624302266 202.01358197401171,125.14714443022663 202.13831297401168,125.70168343022661C202.4699259740117,126.08640743022664 202.75265497401168,126.91339943022663 202.60470997401168,127.34961943022662C202.7789439740117,127.87798243022661 202.44511397401175,128.09400943022663 202.29377897401167,128.7799034302266C201.86421197401168,129.07524243022664 202.05507697401174,129.66746043022664 202.40260497401167,130.1790954302266C202.5843009740117,130.71771843022663 202.2340749740117,131.77092843022666 203.0089209740117,131.40727443022666C203.57729897401174,131.61324443022664 204.1186849740117,131.73012043022663 204.40811197401166,132.23124243022662C204.93465797401166,132.48826243022663 204.98282897401174,133.23387343022665 205.2942669740117,133.6926194302266C205.2696719740117,134.02548543022664 205.3136689740117,134.6777774302266 205.3506229740117,135.06266143022663C205.08426797401168,135.4282524302266 205.63626297401174,135.5999224302266 205.99386197401174,135.86913943022662C206.2396149740117,136.2806104302266 206.56114397401166,136.6271074302266 206.72260797401174,137.18088143022663C206.8797419740117,137.36716843022663 206.67326297401172,138.5632434302266 206.9577499740117,137.85910043022665L206.9577499740117,137.85917843022662ZM188.2241339740117,166.24721343022665C187.73639297401166,166.02435343022668 186.7082579740117,166.27976843022662 186.9182219740117,165.36105943022667C186.9539009740117,164.75250743022661 187.5725859740117,165.0088094302266 188.0375749740117,164.80138243022662C188.4397239740117,165.0307644302266 189.1095819740117,164.85145843022661 189.54559197401164,164.84802243022668C189.98874197401176,164.95530943022663 190.3496079740117,164.97360743022665 190.8048639740117,164.81692943022662C191.2770369740117,165.05956743022665 191.88883297401173,164.81413043022664 192.39061397401167,164.85385243022665C192.93237797401173,164.9338394302266 193.46394497401167,165.1492994302266 193.2612219740117,165.81190943022665C192.8417429740117,166.24199043022665 192.41903197401163,166.0885264302266 191.9242169740117,166.13838743022666C191.4383919740117,166.03038543022666 190.74492597401166,166.23511843022666 190.3695599740117,166.12284143022663C189.8554799740117,166.18104743022658 189.33249997401174,166.0586024302266 188.7682639740117,166.13838743022666C188.5718199740117,166.16529843022667 188.39968197401174,165.83894843022662 188.2241339740117,166.24721343022665ZM188.93927597401168,129.47957743022664C189.5008149740117,129.22050143022662 190.0438659740117,129.26845643022665 190.6804919740117,129.43293743022662C191.17303997401172,129.8276524302266 191.43110297401174,130.25349743022662 191.44227297401173,130.89431543022664C191.4652819740117,131.5935154302266 191.08787697401172,132.01175243022664 190.46672597401175,132.30322243022664C190.51554297401174,132.86883243022663 190.5047839740117,133.30861343022664 190.4006529740117,133.81707043022664C190.51317897401168,134.31589143022663 190.1289649740117,134.99203043022663 189.76324397401174,135.29399443022663C189.36559497401174,135.77908743022664 188.96607797401174,136.29306343022662 188.46121897401173,136.73982543022663C188.1278179740117,137.08167543022662 187.9465819740117,137.38096443022664 187.64891097401173,137.7037124302266C187.0377349740117,138.16773543022663 186.64807397401174,138.62716943022662 187.52453797401176,139.1961834302266C187.8623879740117,139.50509943022664 188.3061979740117,139.75027643022665 188.56615797401176,140.28444243022662C189.11162997401172,140.74517643022665 188.9383829740117,141.2559994302266 189.07919497401173,141.82355343022664C188.82989197401167,142.2271454302266 189.12003597401173,142.84745543022666 188.93927597401168,143.33157043022666C189.02840397401167,143.97810743022663 188.87485097401174,144.59644543022665 188.9081829740117,145.2127054302266C188.9643209740117,145.81443343022667 189.0016019740117,146.21522443022664 188.9081829740117,146.7673624302266C189.0314359740117,147.2129864302266 188.98636597401168,147.6800994302266 188.89263597401174,148.0888204302266C188.97661897401173,148.6132394302266 189.03025397401174,148.9575694302267 189.0170089740117,149.36363943022658C189.08462097401176,149.8329654302266 189.04821097401174,150.32471143022664 189.0442149740117,150.95327643022662C189.0065149740117,151.48206443022661 189.03068997401166,152.23091443022662 189.0636479740117,152.62841943022661C189.1044109740117,153.12191343022664 189.06877897401168,153.64637543022667 188.98591597401173,154.21416943022666C189.20592697401173,154.65458943022662 189.0308139740117,155.36573943022657 189.04810197401176,155.7999194302266C189.02901097401167,156.22037743022662 189.10859397401174,157.02016343022663 189.0170089740117,157.37012243022662C189.1198029740117,157.79557443022662 189.23130597401166,158.40504243022667 189.03255497401167,158.87813943022658C189.1825329740117,159.54114143022665 189.1367949740117,160.01787743022663 189.0636479740117,160.71263543022667C189.01391497401167,161.3474234302266 189.2855349740117,161.41662143022666 189.82542997401174,161.3034044302266C190.15227497401173,161.33995443022667 190.96398597401168,161.41335043022664 191.1721519740117,161.1732024302266C191.02630897401173,160.43927043022666 191.0768199740117,159.91581543022662 191.13134197401166,159.20461743022662C191.1218589740117,158.52225543022658 191.15621697401173,158.02352343022667 191.1157959740117,157.4944954302266C191.1358039740117,156.6665204302266 191.1217029740117,156.53167243022662 191.1624349740117,155.86210543022662C191.1996849740117,155.30323843022663 191.1102299740117,154.9179294302266 191.17798197401174,154.43182143022662C191.08118897401167,153.90181543022663 191.22759097401172,153.22188943022667 191.10024897401172,152.56623243022665C191.15718097401168,151.9892374302266 191.18152597401172,151.31150643022664 191.1177389740117,150.7958674302266C191.05693597401165,150.37870243022664 191.0808469740117,150.04979043022666 191.0633259740117,149.58323443022664C191.06208997401174,148.99294843022662 191.17714197401176,148.4384814302267 191.0380629740117,147.68460943022663C191.1176139740117,147.0867134302266 191.06686997401164,146.75268343022663 191.08470197401172,146.09885943022664C191.0601699740117,145.50868543022665 191.0730419740117,144.96331943022665 191.08470197401172,144.2488184302266C191.4147919740117,143.74564743022663 191.73243897401176,143.31211543022664 192.29733497401173,143.0050924302266C192.60263197401173,142.4772244302266 193.1578269740117,142.39783743022662 193.4691569740117,141.96541543022664C193.8994059740117,141.61311043022664 194.4557829740117,141.37584643022663 194.6604129740117,140.85966643022667C194.95580697401167,140.4743904302266 194.59598797401168,139.99405943022663 194.7847859740117,139.50711443022664C194.63981397401164,138.87639643022663 194.8969229740117,138.44916543022663 194.70705297401167,137.7969914302266C194.82060497401167,137.0768564302266 194.6596359740117,136.52529143022662 194.7789559740117,135.84201043022665C194.5614979740117,135.36141943022665 194.8029289740117,134.84853943022665 194.71676997401167,134.26792043022664C194.7684149740117,133.7637704302266 194.6352899740117,133.31818043022662 194.72267697401173,132.82208943022664C194.82265697401166,132.24874943022667 194.63527497401168,131.4949664302266 194.80040997401176,130.94095443022667C194.88863697401166,130.2548024302266 194.31750097401172,130.06577443022667 194.00753497401172,129.57285643022664C193.66057897401174,129.14661743022663 193.72720397401173,128.29205243022665 194.06972097401172,127.97156043022665C194.20881697401165,127.47299043022667 194.7718399740117,127.31080643022662 195.25126097401167,127.16313843022661C195.73786997401174,127.13311843022663 196.30439297401173,127.41844843022668 196.68154497401173,127.81609443022663C196.85873997401168,128.34302343022665 197.07125097401163,128.59015443022662 196.8991969740117,129.1530994302266C196.7717769740117,129.58958043022662 196.5749519740117,129.96016543022662 196.04413597401168,130.24135943022662C195.86062597401164,130.81025443022662 195.97091097401167,131.41617743022664 196.04413597401168,131.88929543022664C195.84716197401167,132.33583443022664 196.0246089740117,132.87704043022663 195.9974959740117,133.31957943022664C196.0292419740117,133.87807443022663 195.89034897401166,134.43475043022664 196.01304297401168,135.09188843022662C195.86956297401167,135.6374134302266 196.0855049740117,136.3146734302266 195.90421697401172,136.77091843022663C196.12348197401167,137.38879443022662 195.86755797401173,138.01137143022663 196.01304297401168,138.5587734302266C195.7440699740117,139.49293743022662 196.2426189740117,139.56832943022664 196.71263797401173,138.7919724302266C197.1954959740117,138.2959174302266 197.5522559740117,138.06145143022664 197.94081697401168,137.45496743022665C198.2689789740117,137.33426343022663 198.79904697401173,136.84150243022663 198.79587897401169,136.3511604302266C198.78997097401177,136.11557643022664 198.12551797401173,135.85854443022663 198.0184119740117,135.44932143022663C197.8153379740117,134.60367943022663 198.0983149740117,134.3574964302266 198.56260197401173,133.73933743022664C199.07566197401167,133.25195543022664 199.6813969740117,133.38824643022664 200.2727249740117,133.5838714302266C200.74217797401167,133.95840443022664 201.2548929740117,134.46643043022664 201.11223997401171,135.0620964302266C201.12374397401175,135.69857143022665 200.7731629740117,136.1251794302266 200.3640609740117,136.3414444302266C199.95183597401166,136.60346143022662 199.9949109740117,137.29264243022664 199.5393639740117,137.81715443022665C199.1060609740117,138.1017794302266 198.89648297401175,138.4884394302266 198.37604297401174,138.91634443022667C198.1397679740117,139.41267343022662 197.68193097401172,139.62101143022667 197.34996997401174,139.98905843022666C196.96741097401167,140.44308343022664 196.36024897401174,140.89185543022668 196.1140179740117,141.38436243022664C195.7179409740117,141.61414243022665 195.3584249740117,142.14806643022663 195.0179839740117,142.39877643022663C194.49104597401168,142.78663043022664 193.9911709740117,143.23596843022665 193.5566069740117,143.56476943022665C193.2326149740117,144.05594243022665 192.13575597401166,144.26249243022664 192.35952097401167,144.9328674302266C192.2729419740117,145.76816543022665 192.3651179740117,146.10493743022664 192.2506949740117,146.81400243022665C192.28267397401174,147.51037143022666 192.3471929740117,147.90929343022663 192.32842797401173,148.60185743022663C192.40598997401173,149.18388043022662 192.31365897401173,149.6726724302266 192.32842797401173,150.26534043022662C192.4286099740117,150.71255443022665 192.2858149740117,151.19208543022665 192.3128809740117,151.66453143022665C192.33763197401166,152.17136543022661 192.3974549740117,152.75905343022663 192.32842797401173,153.29692143022663C192.4717829740117,153.7109204302266 192.2397809740117,154.54512243022663 192.45280097401167,155.06923043022664C192.25197497401172,155.62549443022664 192.43000897401166,156.3179164302266 192.42170697401167,156.93481843022664C192.37099397401167,157.28588343022662 192.4000349740117,157.79908943022662 192.4061609740117,158.28737043022662C192.2793319740117,158.73642543022663 192.4553969740117,159.23955243022664 192.32842797401173,159.6243754302266C192.48879497401174,159.8883414302266 192.27982897401174,160.6216344302266 192.43725397401164,161.05465943022665C192.19022697401167,161.8195604302266 193.38849697401167,161.2341784302266 193.94527097401172,161.45887043022663C194.41760497401174,161.45249643022666 194.80576797401167,161.41031843022662 195.4066489740117,161.41223043022663C195.99622397401174,161.58839843022662 196.49012197401174,161.2844224302266 196.7605009740117,161.75425543022664C196.91452097401177,162.2005594302266 196.54153397401168,162.8326844302266 195.88859197401172,162.65595643022664C195.32779997401175,162.71795543022665 194.70032097401167,162.67708343022662 194.24065597401176,162.67150243022664C193.6041719740117,162.65250443022663 193.2335399740117,162.73561643022663 192.5305329740117,162.65595643022664C191.9314229740117,162.79365243022664 191.50429497401166,162.65160343022666 190.90397397401168,162.79587543022663C190.37259597401166,162.61074943022666 189.8546839740117,162.86721843022661 189.3279399740117,162.7025954302266C188.76707397401168,162.80144143022662 188.0234449740117,162.70226143022666 187.6178169740117,162.71814243022664C186.9085349740117,162.79229943022662 186.35789497401174,162.64712543022665 185.61230997401168,162.76478243022657C184.96877497401172,162.70942043022666 184.55145597401167,162.81526143022666 183.97020397401172,162.76089543022664C183.43399297401174,162.7568534302266 183.23787597401167,161.7813414302266 183.87109397401173,161.61433643022661C184.26386097401172,161.44638843022662 184.70416797401174,161.79434643022662 185.08372697401177,161.52105643022662C185.6459479740117,161.67470343022666 186.1891719740117,161.5429154302266 186.85603597401175,161.61433643022661C187.89288397401174,161.80944243022662 187.8350809740117,161.18084743022663 187.85101597401172,160.47943643022663C187.7995569740117,159.81684743022663 187.9851669740117,159.29326943022662 187.8043759740117,158.83150043022664C187.91974697401167,158.1938604302266 187.78587597401173,157.46455743022662 187.91320197401166,156.98145843022658C187.7715259740117,156.43577843022663 187.95301697401172,155.9929314302266 187.92874897401174,155.3024284302266C187.86444797401174,154.85326843022662 187.90042297401175,154.19543343022661 187.88210897401166,153.59230643022664C187.81625397401172,153.22194043022665 187.85919297401173,152.43430643022663 187.88210897401166,152.00655643022662C187.65572897401177,151.6005964302266 188.12547997401174,150.99383443022663 187.75773697401166,150.7783774302266C187.4556149740117,150.49279143022665 187.1684859740117,149.85831143022665 186.6539299740117,149.59683743022663C186.38405897401174,149.16489243022662 185.9756829740117,148.99675143022665 185.62785697401173,148.52412443022664C185.1995579740117,148.1701854302266 185.02565897401172,147.64795543022663 184.74170197401173,147.18711943022666C184.25363797401172,146.8548274302266 183.9136169740117,146.34459243022664 183.71562897401168,145.8034754302266C183.61701697401168,144.97241643022664 183.41700097401173,144.67459643022664 183.6068029740117,144.04671243022662C183.6631589740117,143.45599943022663 182.9249139740117,143.35609243022662 182.73619497401174,142.88072043022663C182.49336997401173,142.2980614302266 182.49626897401174,141.69355743022663 182.78283397401168,141.29496943022664C183.17600697401173,140.93185943022664 183.73842097401166,140.4039464302266 184.2753049740117,140.56428143022663C184.7484649740117,140.62509943022667 185.23502297401168,140.8602444302266 185.45878797401167,141.34355343022662C185.8759239740117,142.0247194302266 185.62186597401165,142.36148443022662 185.4879369740117,143.02063943022665C185.0627509740117,143.44150643022664 184.5389129740117,143.52438843022662 184.67951597401174,144.20217843022667C184.7119149740117,144.89239743022665 184.64664997401172,145.46033443022662 185.25473897401173,145.92784743022662C185.59594697401167,146.3297774302266 185.91873097401168,146.7170504302266 186.2497189740117,147.01610743022664C186.5556349740117,147.47527043022666 186.94515497401173,147.69363143022662 187.26024597401172,148.11991343022663C187.74185997401167,148.85617343022665 187.91491497401168,148.25563543022662 187.92874897401174,147.5913304302266C187.77195997401174,146.95558743022661 187.90424697401167,146.39370043022666 187.85101597401172,145.92784743022662C187.77147997401173,145.2525794302266 187.89589897401174,144.84590943022664 187.81603597401175,144.2099514302266C187.95741697401172,143.70520943022666 187.7720859740117,143.2698254302266 187.86656297401166,142.98954643022662C187.66751097401166,142.51231143022662 187.9331799740117,141.92986343022662 187.78882997401166,141.3571564302266C187.78090097401173,140.84439943022664 187.2292339740117,140.51443743022662 186.88712897401172,140.09788443022663C186.45615797401163,139.73705143022661 186.1254529740117,139.44918143022664 185.7211359740117,138.93189143022664C185.2047469740117,138.74562143022663 184.8512929740117,138.07267643022664 184.44631697401172,137.8280854302266C184.04324597401177,137.58941843022663 183.89238697401174,137.3797594302266 183.5601629740117,137.06630343022664C183.16747797401172,136.82548043022663 182.8797179740117,136.32712943022665 182.82947397401165,135.8070314302266C182.6686739740117,135.25243043022664 182.87842997401174,134.62104543022662 182.7148179740117,134.15520843022665C182.74449697401172,133.53666943022657 182.80898397401174,132.97075643022663 182.68955497401174,132.49561143022663C182.7977119740117,132.09450543022663 182.6027119740117,131.4776784302266 182.81392797401168,131.01868743022663C182.5389769740117,130.68002843022663 183.17824897401164,129.78396043022664 182.4097169740117,129.6505894302266C181.9792139740117,129.1765264302266 181.81277397401175,128.79297843022664 181.8034009740117,128.06483943022664C181.9939939740117,127.52331343022664 182.33480097401173,126.92228643022665 182.98493997401167,126.77447443022663C183.7676499740117,126.74224643022666 184.0883059740117,126.82582443022662 184.63287597401177,127.2564174302266C185.00738697401164,127.8123894302266 184.9569799740117,128.39565343022662 184.8816209740117,129.1375524302266C184.63507897401172,129.56590143022663 183.94603497401172,129.6485344302266 183.9799199740117,130.24135943022662C184.1617219740117,130.70477643022662 183.88768197401174,131.41878743022662 184.08874597401172,132.0292144302266C183.9110239740117,132.65258243022663 184.1048679740117,133.32862643022662 183.9177339740117,133.7859774302266C183.8182199740117,134.39528543022664 184.19251797401176,135.2247374302266 183.9488269740117,135.60492543022667C184.05093697401168,136.38648743022662 184.72209497401175,136.21906043022665 184.95935397401172,136.8797444302266C185.4399339740117,136.81402843022664 185.88977297401175,138.11038443022665 186.34299897401172,137.39278143022665C186.55864797401173,137.04550643022662 186.87527097401164,136.55404943022663 187.36907197401166,136.3045214302266C187.62385697401166,135.88879043022663 187.9664569740117,135.5599694302266 188.3951459740117,135.15407543022664C188.7486499740117,134.7537824302266 189.19600897401168,134.50702843022663 189.20356797401172,133.9880824302266C189.1322089740117,133.52764143022665 189.64882897401174,132.5428964302266 188.9081829740117,132.20022643022662C188.38145397401166,131.7409144302266 188.28546597401174,131.04775543022663 188.27077297401172,130.4745574302266C188.38981297401168,130.06619943022662 188.83089597401172,129.7722014302266 188.93927597401168,129.47957743022664ZM184.80388797401173,163.37109843022662C185.25541197401174,162.8877464302266 185.88335997401168,163.13640743022657 186.49846397401166,163.09126043022667C187.24459097401171,163.1339824302266 187.6799339740117,163.00489843022658 188.32907297401164,163.1087504302266C188.7663419740117,163.0569484302266 189.8631959740117,163.01481743022663 190.22964097401166,163.09126043022667C190.85361397401175,163.14453843022665 191.39747797401174,162.90717743022662 191.86203097401176,163.13789943022664C192.35418697401172,162.84978643022663 192.77480297401172,163.1892654302266 193.29231497401167,163.04462043022662C193.85713097401174,163.05441443022667 194.32492097401166,163.1424704302266 194.9713449740117,163.06016743022664C195.62223597401174,163.6044754302266 195.19222097401172,164.38012643022662 194.55158697401166,164.39717143022665C194.0598599740117,164.19357843022664 193.6552549740117,164.4010584302266 193.29231497401167,164.2572524302266C192.67946297401173,164.2648704302266 192.11236297401166,164.41609043022663 191.67547197401174,164.2261594302266C190.9108299740117,164.31287843022662 190.57399097401174,164.2577964302266 189.85817097401173,164.25835643022663C189.4904779740117,164.24887343022664 188.70759797401172,164.25027243022663 188.1774939740117,164.31943943022662C187.55817597401168,164.22381243022664 187.2351339740117,164.22191543022663 186.7472099740117,164.33498543022662C186.2693249740117,164.23511443022664 185.77396897401172,164.37270143022664 185.2391919740117,164.38162543022662C184.87318597401173,164.38114943022666 184.56285097401172,163.62362543022667 184.80388797401173,163.37109843022662ZM212.8659849740117,148.8198514302266C214.0790049740117,148.51593443022665 215.52853297401174,148.7446064302267 216.67080297401174,148.78572643022665C218.0173895535657,149.03709943022662 219.6656069740117,149.3064354302266 219.0601349740117,150.49943443022664C219.2239059740117,151.33676143022663 219.56157597401173,152.4973184302266 220.8680429740117,152.87716443022663C222.30610597401173,152.8669724302266 223.0219999740117,152.1984774302266 223.52885997401162,151.65476043022664C223.5973419740117,150.9357584302266 224.22532697401167,149.83148343022663 223.21946097401172,149.03709943022662C222.96682897401172,147.8675714302266 221.65925997401166,147.12693743022663 220.6230549740117,146.56984743022662C219.77877397401173,145.79880343022663 218.50448097401164,145.20822043022662 217.48354697401163,144.56261143022664C214.69756421029547,142.62808843022663 213.6363479740117,139.88172643022662 213.17143197401177,138.73773543022665C212.9328569740117,137.56613143022665 212.5524609740117,136.42061243022664 212.86384497401173,135.20781043022663C212.87052997401173,134.00974143022663 213.28948197401166,132.6867734302266 213.63368097401172,131.7294704302266C214.1471049740117,130.73718243022662 214.62828097401166,129.3611574302266 215.70590697401173,128.61403443022664C218.03899685025152,126.21479743022664 220.8680429740117,126.88330043022665 223.3726279740117,126.99585243022662C225.70113475496353,127.42743043022665 225.81711297401168,127.43982343022662 226.8932029740117,128.12443743022664C228.03850297401172,129.14187443022664 229.2828519740117,130.11729743022664 229.58368097401166,131.6244064302266C230.2477479740117,132.82683443022665 230.0317549740117,134.21971843022664 230.2544109740117,135.4706734302266C230.6110059740117,136.26537643022664 230.85589997401172,138.43180643022666 229.48201997401173,138.52653443022666C228.0234659740117,138.47171743022665 226.7886349740117,138.67091543022667 225.34525097401166,138.57689043022663C224.58399297401166,138.48019043022663 223.52885997401162,138.7919724302266 223.3726279740117,137.7969914302266C223.15799197401165,136.70294243022659 223.0837229740117,134.93131243022663 224.3408589740117,134.58444143022663C223.90884297401166,133.66468843022665 223.4944159740117,132.90414143022662 222.30610597401173,132.92709243022665C221.11860697401164,132.79731043022662 220.10244697401168,133.5781644302266 219.56157597401173,134.60011643022665C219.13723497401173,135.92668043022667 219.59451897401172,137.35318043022664 220.01767597401167,138.57265043022664C220.76042897401172,139.52109743022666 221.9076119740117,140.26843343022668 222.6520549740117,141.10955543022664C223.70440997401172,141.80264943022667 228.29738046409923,143.84113443022665 228.78162646409925,144.9328674302266C230.84619999130277,147.0161074302266 230.0087599740117,150.95327643022662 230.0087599740117,152.5307894302266C229.60182397401172,153.60363143022664 229.36938997401168,155.05455743022662 228.5216279740117,156.18123143022657C227.9078819740117,157.1326484302266 227.1505249740117,158.01650743022662 226.16407297401167,158.6242894302266C225.18370297401168,159.35574943022664 224.0132709740117,159.36892343022666 222.9320869740117,159.88395143022666C221.81522797401172,160.11457243022664 220.62802097401172,159.79359443022662 219.2919939740117,159.92413943022666C218.0464019740117,159.6604524302266 216.95561797401172,159.02114843022667 215.81201697401175,158.53963543022664C214.5670769740117,157.7893204302266 213.92046297401168,156.54337343022664 213.3376729740117,155.24995943022662C213.25646397401167,154.0523574302266 213.1362159740117,152.80184443022665 211.97235197401167,152.25876543022662C211.27883497401166,151.47203743022664 211.83324397401174,148.21740143022663 212.8659849740117,148.8198514302266ZM431.5745829740116,141.62144743022662C431.30948297401164,143.4738904302266 433.7650009740116,145.01432543022662 434.38851197401164,146.93837443022665C434.6951529740117,149.27674543022664 434.35353197401173,150.86076443022665 433.96875497401163,152.87716443022663C433.4371239740118,154.79304543022664 430.89480897401165,157.24246043022663 428.79174697401163,158.38064943022667C427.14245797401173,158.5683514302266 424.81554097401175,159.5285724302266 423.2882619740117,159.25125743022662C421.4132989740117,159.99188243022667 418.9175609740116,159.12920143022666 416.9452609740116,159.3911764302266C414.76651797401166,160.1457134302266 412.13841797401176,159.1987034302267 413.02752597401184,155.87765143022665C414.6985179740117,154.35142043022663 415.4853919740117,153.6740704302267 415.15740597401174,150.24979343022665C414.9487709740117,148.33735543022667 414.55632897401165,140.9522144302266 414.9242069740117,138.77642543022665C414.57744097401167,136.87615643022662 415.3754619740116,134.92741343022664 414.7998349740117,132.57334443022663C413.5335669740117,132.77503843022663 412.99643297401167,131.4072744302266 412.99643297401167,127.95601343022662C412.99643297401167,126.21479743022661 416.25331497401174,127.14930243022667 417.6914969740117,126.82111343022663C420.02701097401166,126.66613043022662 422.82668397401164,126.74241743022662 424.8273719740117,127.11649843022664C426.4037469740116,127.71932043022665 428.6389399740117,128.14879443022664 430.7817079740116,129.40184443022662C432.50084797401155,130.7079954302266 433.05852906907046,133.4128594302266 433.3313449740116,135.06079543022665C433.2671379740117,137.03726243022663 432.94821597401165,139.2167604302266 431.9943399740117,140.84411943022664C431.99433997401184,141.17059743022662 431.9943399740117,141.17059743022668 431.5745829740116,141.62144743022662ZM421.17392797401175,147.26485243022665C420.8389309740117,149.3669724302266 419.8566519740117,153.6431294302266 422.4798399740117,153.71667843022664C423.7620429740117,154.13938343022664 426.23604697401163,153.6836264302266 427.28372997401175,152.34858043022666C428.8771909740117,149.83424143022665 429.04713097401174,146.6237014302266 426.13328397401165,145.38371743022662C424.8061819740118,145.0038744302266 421.0985579740118,144.0608214302266 421.1272879740116,146.1765924302266C421.1272879740116,146.76736243022657 421.17392797401175,146.56984743022664 421.17392797401175,147.26485243022665ZM428.0610579740117,136.42889343022662C428.1821659740117,133.9680044302266 426.2014399740117,131.98290943022664 424.23660197401165,131.60945743022666C422.4877689740116,131.11016943022662 420.6800759740117,131.4768914302266 420.8319039740117,134.00362843022663C420.7574359740116,135.88889443022663 420.69105197401166,137.94103343022664 420.9251829740116,139.6470334302266C422.69898397401164,140.86070743022663 425.86972297401167,140.10003743022662 427.40810197401163,138.6675994302266C427.8985349740117,137.77228643022664 428.06105797401165,137.18088143022658 428.0610579740117,136.42889343022662ZM261.8682319740117,160.3861574302266C260.62122997401167,160.65512343022664 258.29485797401173,159.37796843022664 256.9710629740117,158.5050224302266C256.28485897401174,157.46633843022664 255.5248874583371,155.61336043022658 254.4058789740117,152.95489643022663C253.36231597401172,150.26534043022662 252.89455181300698,146.7673624302266 253.36231597401172,142.84768343022665C253.76150997401174,140.35810443022663 253.98240897401172,137.21187343022663 254.69543397401173,134.5069494302266C255.15208997401174,132.76725343022662 255.90055697401175,130.56941543022663 257.00215597401166,129.21528543022663C258.8591119740118,127.06829343022665 260.8353139740117,126.63754043022664 263.04782797401174,126.65593143022662C265.2332379740116,126.42011643022661 266.8535275667784,126.82111343022663 268.6169200559004,128.0803864302267C270.8089870559004,130.1791734302267 271.01116997401175,131.48921743022663 271.63147797401166,133.5838714302266C272.36886997401166,135.87773843022663 273.40809257692615,142.02227443022662 272.79747097401173,147.68460943022663C272.6187069740116,150.42743243022665 272.39908997401164,152.28000043022664 272.0512349740117,154.69611243022663C270.6495739740117,157.0801374302266 268.7503239740116,157.86761143022665 270.3411129740117,159.74874743022662C271.79429097401174,162.32517143022665 271.6050709740117,163.58167243022666 269.3616789740116,164.5215444302266C266.5929159740117,166.34408143022662 264.6690699740118,162.4538324302266 264.23131097401165,160.57271543022662C263.8501619740117,159.77065743022658 262.42543397401175,160.54594443022663 261.8682319740117,160.3861574302266ZM266.4544699740117,148.99052143022664C266.7032159740117,147.01610743022664 267.31755454761566,140.5953744302266 266.8535275667784,138.27893543022662C266.3124031950201,135.48055343022662 265.2816199740117,132.69942543022663 262.58337497401175,132.69771743022662C259.6273329740117,132.7216744302266 259.4058579740117,136.1223094302266 259.2097689740117,138.0399074302266C259.2110329740117,140.6770564302266 258.6760897046014,143.6269554302266 258.6760897046014,146.7673624302266C258.6760897046014,149.02195743022668 259.1182309740116,150.71656443022664 259.9093649740117,152.50404643022665C261.2838879740118,154.28400143022662 264.1133279740118,154.73005343022663 265.02418597401174,152.78388443022666C265.89547997401166,151.55344943022664 265.88003926258443,150.21549943022666 266.4544699740117,148.99052143022664ZM441.7109459740117,126.77447443022663C443.25369397401164,126.41319243022664 445.6796429740116,127.3785144302266 447.32325797401165,127.41188343022662C449.1719469740117,129.0077064302266 451.86999197401167,129.24441243022662 452.73346397401167,131.68719043022662C454.19448397401163,133.5988914302266 454.04543897401174,135.2191674302266 454.58350597401153,137.33448143022662C454.60153997401164,139.40793843022664 454.4070369740116,142.74776743022667 453.18431397401173,144.83958743022663C451.9410399740117,146.55643443022663 449.68541897401167,147.86941643022664 451.05443397401166,150.0165954302266C452.2266149740116,151.4939744302266 452.53543197401166,155.81307143022664 454.72342497401166,155.86210543022662C456.3668529740117,155.16335243022667 457.06546897401165,160.69056643022662 454.82447697401165,160.42502343022664C452.93678197401164,160.12727443022663 450.89427397401164,160.63992243022662 449.0022869740116,160.13741143022662C447.9572469740116,159.92239543022663 448.6989889740116,156.0392804302266 447.3077109740117,155.08477643022667C447.04359097401164,153.27313643022666 446.3048329740117,151.16341943022667 445.30220397401166,149.62793143022662C443.27364097401164,148.00949543022662 443.99661797401166,152.54742243022662 443.66981397401173,154.15198243022667C443.8767849740117,156.2635974302266 445.8967359740117,156.41354243022664 445.05345897401173,159.4533624302266C443.28413497401164,161.3240924302266 439.2275839740116,159.8585514302266 437.5600119740118,160.27733143022667C436.4147429740117,160.0666054302266 436.18661297401167,156.73123343022658 437.4045469740117,155.7999194302266C438.2282039740117,154.54610543022667 437.88648997401174,143.98646943022663 437.8864899740116,141.40379543022664C437.81435397401174,138.47025143022668 437.7600969740116,136.2391244302266 437.59110497401167,134.12800143022662C439.02976897401174,131.44128543022663 435.6006159740116,131.42483843022663 435.75660997401167,129.30856543022662C435.47597897401164,126.57509243022665 437.2916939740117,126.89251743022663 439.7209849740118,126.8833004302266C440.0125149740117,126.95319743022662 441.0671779740117,126.93822643022665 441.7109459740117,126.77447443022663ZM445.3643899740116,142.75634743022664C447.3464219740116,143.19278743022662 449.0079769740116,139.8255844302266 448.8623679740117,138.71423943022666C449.21465297401164,135.50357443022662 448.1505059740117,132.38738243022664 444.8824459740116,132.3245994302266C443.08529397401173,133.22997743022663 444.1316869740116,136.64722843022662 443.77863997401164,137.9990974302266C444.3918739740117,139.1850784302266 442.7428029740116,144.06634343022665 445.3643899740116,142.75634743022664ZM301.47140510209283,154.47846043022662C300.5287723895327,152.95489643022663 300.50733921053404,150.95327643022665 300.0506069740117,147.84007543022665C300,144.56261143022664 300.15261397401173,142.71359943022662 300.0506069740117,140.14452343022663C300.42982497401175,137.8061084302266 300.5431389740117,136.09537643022665 300.9678539740117,134.08136143022665C301.5280219740116,132.03332643022662 302.7835299740117,129.70645343022662 304.0149819740116,128.46905043022667C305.9379989740115,127.29296443022665 307.65255297401166,126.16177643022664 310.24915597401167,126.40135643022663C312.21749197401175,126.10970743022662 315.1852539740117,127.41802743022663 316.4055979740118,129.40184443022662C318.12941697401163,130.93377843022665 318.46871788893026,133.02419543022665 319.20397997401176,135.6826584302266C319.90357597401174,138.23229543022666 319.90357597401174,140.70420043022668 319.90357597401174,143.72023443022664C319.90357597401174,148.67383943022662 319.20397997401176,153.29692143022663 318.1029295619967,155.6133604302266C317.3254707926402,157.23020343022665 314.17589297401184,159.19999743022663 313.0941779740117,159.98194643022663C310.58076397401175,160.12458643022663 308.0471215882784,160.0577354302266 305.33643997401174,158.6293944302266C304.0149819740116,157.4944954302266 302.41403781465283,156.0020244302266 301.47140510209283,154.47846043022662ZM307.63733297401166,133.25739343022664C307.1975199740117,134.8126614302266 305.80432052797863,137.57933943022667 305.80432052797863,139.86468543022664C305.80432052797863,141.97563443022656 305.80432052797863,144.56261143022664 305.89611697401165,146.25432543022663C305.89611697401153,148.78572643022665 306.7700728996626,151.55570543022662 307.2953079740118,152.48849943022663C308.2791859175851,154.15198243022667 309.76572622852797,154.47846043022665 311.4462419740117,153.88769143022665C313.6032509740117,152.94094343022664 313.48908695065154,149.03709943022662 313.8715069740117,146.5497104302266C313.9946359740117,144.2719874302266 314.13579797401155,142.8029874302266 314.13579797401167,140.34662943022667C313.85704797401166,138.59281443022658 313.76805997401163,135.95386543022664 312.7676999740117,133.81707043022664C311.86428897401174,131.52124943022662 309.4608049740117,131.94385343022662 307.63733297401166,133.25739343022664ZM289.78987097401176,127.42743043022665C291.5986289740117,125.81199843022662 293.50859797401165,127.2226394302266 295.5731949740117,126.54127543022665C298.4048549740117,126.37660043022663 297.51413097401166,130.98106143022665 295.9307659740117,130.95650143022664C295.73243197401166,132.50023843022666 296.0514229740118,141.46959643022663 295.75003697401166,143.37821043022663C295.92939497401164,145.62897443022663 295.19379497401167,149.2867554302266 295.0135179740117,151.05821543022662C294.9163519740117,153.15830243022663 293.84743197401167,156.58049043022663 292.1840429740117,157.38566943022664C291.2003509740117,158.84597443022662 288.59386397401175,160.08895043022665 286.13642697401167,159.6554684302266C284.0049609740116,159.88066343022663 282.2682399740117,159.30020943022663 280.7884069740117,158.4428354302266C277.99916597401176,157.24064143022665 277.87254397401176,153.85703343022664 277.2593359740116,151.78890443022664C277.36985697401167,150.3177134302266 277.2021089740117,148.25534043022662 277.22824297401166,145.95894043022662C277.12414297401176,144.34445243022662 276.9811689740117,135.2034274302266 277.1349639740117,132.35569243022664C277.6267699740118,130.0454844302266 275.53366697401174,131.40727443022666 275.53366697401174,128.54678343022664C275.53366697401174,126.21479743022664 277.2593359740116,126.77447443022666 279.0258149740117,126.54710543022662C282.22646497401166,126.51018243022665 283.9890289740117,126.9438184302266 282.7006349740117,129.7127754302266C282.8478299740117,131.66028043022663 282.2264649740117,140.85965927407509 282.22646497401166,143.98646943022663C282.2264649740117,147.28428543022662 282.1565049740118,149.72509743022667 282.70063497401173,150.95327643022665C283.29027731346645,153.0831564302267 287.58821397401175,154.50210543022666 288.61027497401165,152.02404643022663C289.6940849740116,149.86259143022664 289.78987097401176,148.78572643022665 290.06582297401167,146.40979143022662C290.06582297401167,143.12752143022664 289.9086589740116,135.26642743022663 290.00752297401164,132.85318243022664C290.0658229740117,130.38127843022662 290.2486179740116,129.21226043022665 289.78987097401176,127.42743043022665ZM394.2317239740115,137.28395543022663C394.3919619740118,135.15249743022665 395.4094229740117,133.36822043022664 395.66006497401173,131.16443643022657C396.5927649740117,129.5366424302266 396.6793749740117,127.26874943022662 398.4759369740116,126.51018243022662C400.7431239740116,125.48576943022661 403.0433949740118,126.55208043022662 403.04662797401176,129.12200643022663C403.9850809740118,131.36268343022664 404.08342897401167,133.49571443022663 404.8655769740117,135.74484443022664C404.94082197401167,138.4194504302266 407.65598397401163,148.32925743022662 408.2391829740117,150.80947043022658C408.43918897401176,154.0458824302266 411.54399397401176,156.49680443022663 409.35853497401183,159.56218843022663C407.39669797401166,159.13800643022665 404.5717159740116,159.94668043022662 402.8756159740117,159.15797843022665C401.6328229740117,157.21354843022664 404.2312459740117,155.78998343022664 402.9844419740117,153.8565974302266C402.38986397401175,151.96737743022663 399.2351849740116,152.15577543022664 396.9523729740117,152.7683384302266C393.53724297401163,154.03700943022665 397.8167779740117,157.7583874302266 395.11787797401166,159.4378164302266C393.2576689740116,159.25245443022663 390.44857497401176,159.92034643022663 388.72823797401173,158.98696543022663C388.8070589740116,157.16735943022664 388.29983697401167,156.0317294302266 389.6921249740117,154.8360314302266C390.18016297401164,153.07833043022663 393.27643397401164,139.37823143022663 394.2317239740115,137.28395543022663ZM401.84954297401174,146.79845543022662C401.63899497401167,144.1652834302266 401.3743769740117,141.9891804302266 400.60581697401165,139.86468543022664C400.60581697401176,136.73982543022663 398.0133639740117,137.32887543022662 398.4137509740117,140.85966643022667C398.15539797401175,142.69291743022666 396.27143297401165,146.33671143022661 398.3982039740116,147.1715734302266C398.9600729740116,147.9487024302266 401.0117069740116,146.79620443022662 401.84954297401174,146.79845543022662ZM343.9074789740117,139.33610243022662C344.2954119740117,138.06876143022663 345.3146139740117,135.06041443022661 345.57096197401165,133.47504543022666C345.8810689740117,131.64378743022664 346.79601597401165,129.61305743022663 347.7008419740117,127.61398843022661C349.23096597401167,126.6719694302266 351.7034149740116,126.17438243022667 352.53582497401175,127.69172143022661C353.91954697401167,129.20727943022658 353.56303297401166,131.63139343022664 354.43250597401163,133.4128594302266C354.73911597401167,135.66816543022668 355.25917897401166,138.47250143022663 356.0648959740116,140.5176414302266C356.2540199740117,142.28598643022661 357.08874597401166,144.10927943022668 357.44854097401173,146.51861743022664C358.0394639859481,149.03709943022662 359.3860779740118,156.04356443022664 360.5053849740117,157.2651834302266C361.00783397401165,161.2390404302266 357.95027497401173,159.93352143022662 355.67040197401184,160.0577354302266C352.90912897401165,161.0527644302266 352.84342897401166,158.56322343022663 352.9439219740117,157.11943443022665C354.3845609740117,156.0323824302266 353.3667889740117,152.4802324302266 350.5614099740118,153.07926943022662C349.29358797401164,153.41125443022662 346.6858219740118,152.51064443022665 345.8663459740117,154.73497943022664C345.30550397401174,156.0569984302266 347.7945409740116,160.12562943022664 344.6245639740117,160.2928774302266C342.34829797401176,160.0987074302266 340.81974297401166,160.0788804302266 339.0569489740117,160.2617844302266C338.66746097401165,157.59383043022663 338.98045997401164,156.8367384302266 340.0519299740116,154.47846043022662C340.78079904467626,150.70064443022667 343.30420361240147,141.29496943022664 343.9074789740117,139.33610243022662ZM351.12108697401163,141.45043543022666C351.1035189740117,139.66455443022664 350.1954909740117,135.57302843022666 349.03784697401176,138.99407743022664C348.4945869740117,140.97270343022666 348.02144297401173,144.1337254302266 347.74748097401164,145.55472943022664C346.5527899740118,148.50523843022665 350.5267419740117,147.69874143022662 351.7429499740116,147.54469043022667C352.50319197401166,145.63322743022664 351.7959629740116,143.41370943022662 351.12108697401163,141.45043543022666ZM502.04718197401166,133.0241954302266C502.5910223478369,131.40727443022666 504.2346459740116,127.22814443022659 506.4313139740117,128.08038643022667C509.82668497401164,128.10543143022664 509.7116399740115,132.49561143022663 510.23244997401173,134.65658443022664C510.85475516262886,137.28395543022657 513.0143539740117,146.65770443022657 513.5516429740117,149.4880124302266C514.1092519740116,151.51664043022663 514.2160719740116,152.85339943022666 514.9819269740117,155.42680143022665C515.0677439740116,157.51847443022666 516.5464719740116,157.6827574302266 516.3344789740116,160.3706104302266C514.5322464102333,161.75425543022664 511.9134229740116,161.3034044302266 509.71163997401163,161.3344974302266C506.81231397401154,159.46913143022664 510.9754209740116,157.1639084302266 508.80993897401163,154.88267143022668C507.39602597401165,153.56793743022666 505.5439319740117,154.50695643022664 503.24426797401156,154.47846043022662C500.7151979740116,155.4475234302266 501.6652799740117,157.44788143022663 502.2745499740115,159.47473943022666C502.2327299740116,162.85598643022664 499.2113855783973,161.3034044302266 495.89073997401164,161.45887043022663C493.5088809740118,160.87436943022664 495.37125197401167,157.30326943022663 495.84410097401167,155.59781343022664C496.95942697401165,153.1228044302266 501.7904149740116,133.91754643022665 502.04718197401166,133.0241954302266ZM504.8611109740117,140.79747943022664C504.2014699740117,142.9760044302266 503.6570289740115,145.34220043022663 503.78839697401173,146.7829084302266C502.0019879740116,149.7579594302266 507.2209249740115,149.62462743022664 507.76831897401166,148.16655343022663C508.14966097401157,145.5449434302266 506.6089029740116,142.31098143022663 506.5401399740116,140.13092043022664C506.04101797401154,137.64998343022663 504.70842797401167,138.98343943022667 504.8611109740117,140.79747943022664ZM481.1059529740117,161.05465943022665C479.56091897401166,160.69873143022662 478.14756497401174,159.6857914302266 477.0269219740117,158.6740914302266C475.5293669740116,156.52334943022663 474.88573897401164,154.98157543022663 474.3121019740116,152.78388443022666C474.0860079740117,149.74872443022662 473.68750297401164,147.64539043022663 474.0575269740117,145.09804943022664C473.6534869740116,143.19400543022664 474.3597209740117,140.44192643022663 474.29655497401166,138.27893543022662C475.5596679740117,135.87659543022664 475.17101897401164,133.61409843022665 476.78400697401173,131.95148143022664C479.11917897401156,129.06756643022663 481.0611789740117,127.3267114302266 484.60393097401163,127.14759143022664C486.79650997401154,127.66731043022662 490.70005197401167,127.8092274302266 492.0973769740116,130.41237143022664C493.4360769740116,132.14218243022663 494.09326097401157,134.09965543022662 493.9007789740116,136.21124143022664C494.81065797401175,138.65926243022662 491.7243529740116,138.39541343022663 490.4028009740116,138.23229543022663C488.13553597401165,138.32164143022666 486.3404519740117,138.64611143022665 486.9670089740117,136.05577643022662C488.67447397401156,134.25409643022664 486.35490997401166,133.2903914302266 483.9917849740117,133.3428994302266C479.15293303272745,134.26792043022664 480.3853689740116,144.01952343022663 479.84668097401163,146.40979143022662C480.16300697401164,148.74453143022663 479.6561729740117,151.01956543022663 481.0476529740116,152.94129343022664C481.45677697401175,155.2446934302266 484.2054099740116,156.1358364302266 486.74158397401163,155.42485843022666C488.8845539740117,154.0402934302266 485.9489889740117,153.96049143022663 486.9203699740116,151.21368143022664C488.0402359740116,150.17561543022663 489.9733579740116,151.1241954302266 491.4813449740115,150.49270943022663C493.57960297401166,150.24687243022663 494.6212849740115,151.77249943022662 493.62094097401166,153.90323743022662C493.9856009740118,156.37056043022662 492.1566559740115,158.6482354302266 490.5738139740116,159.84202743022658C488.2425429740116,160.61884543022657 486.3706589740117,161.53907843022668 483.7799629740117,161.3344974302266C482.36502871079585,161.3034044302266 482.51050286421525,161.3344974302266 481.1059529740117,161.05465943022665ZM244.93801797401167,131.60945743022666C242.95286197401174,131.36302843022665 240.9886209740117,131.08787143022664 239.4034399740117,132.18468043022665C239.5254799740117,134.50410143022663 239.10757897401177,136.78681943022661 239.5394719740117,139.49545443022663C241.38658997401168,140.83846243022663 243.7431949740117,139.55935043022663 245.74060997401165,140.21254043022665C248.52493397401173,140.52591543022663 247.5901029740117,146.19721043022662 244.93413197401168,145.4342444302266C242.83798297401165,146.29385143022665 239.0837529740117,144.48540543022662 238.8126699740117,148.35311243022664C238.9061359740117,150.26721543022666 238.55795497401172,153.49005643022662 241.75097197401175,153.1725484302266C243.55904697401172,152.72152543022662 246.23694097401167,153.4340224302266 248.0006929740117,152.08428943022665C251.0131639740117,151.58411743022666 250.54442697401166,154.3216654302266 250.19275897401167,156.93481843022664C251.15323697401166,159.5856894302266 246.57167697401167,158.35996843022664 244.93801797401167,158.94032643022666C243.05259397401167,159.42958643022666 241.6407079740117,159.4057084302266 238.9642489740117,159.2609744302266C236.70683097401167,159.52011943022663 234.55290997401175,158.6242894302266 234.5529099740117,155.64445343022663C234.31443697401173,153.38836643022663 234.0865129740117,142.88072043022672 234.17979297401172,140.3621754302266C234.12906397401167,138.31344443022664 234.0865129740117,136.05577643022667 234.0865129740117,134.2523744302266C234.4636699740117,132.29773543022662 233.86355697401166,129.74371343022662 235.0348539740117,127.92492043022665C236.10593497401172,126.32418443022664 238.4656789740117,126.47451243022661 240.1963149740117,126.47908943022662C242.2824809740117,126.58775943022664 244.3433286405843,126.21479743022664 246.89688597401172,126.26143743022664C248.88238309562175,126.21479743022661 251.00790797401172,126.38409943022666 250.36377097401171,127.78500143022663C250.6119019740117,129.57787543022664 250.90652497401175,134.0142624302266 247.61202797401168,132.5422514302266C246.89688597401172,132.20022643022654 247.61202797401168,131.60945743022666 244.93801797401167,131.60945743022666ZM377.9389189740117,150.70064443022665C378.56253797401166,152.50202643022664 376.8870999740118,156.02251943022662 379.2292839740117,155.6133604302266C380.37850197401167,157.44003243022658 379.32069797401164,160.27821243022663 377.47252197401156,159.51554943022663C375.1612759740117,158.61430343022664 371.09730897401164,160.97979643022657 370.88077597401167,157.97643843022666C370.0486619740117,155.40731543022665 372.68983697401166,156.15714543022665 372.1711419740117,153.7905254302266C372.4252039740116,151.5845024302266 372.1711419740117,138.03018943022664 372.1711419740117,135.74484443022664C371.93607797401165,133.70891043022664 372.4273489740117,130.79227643022662 372.69972497401176,128.82662143022662C373.3619159740117,125.71026043022664 377.8384099740117,127.09096043022663 379.2292839740117,126.32362343022666C380.7619579740118,126.92961843022661 382.5046199740118,126.6970584302266 384.5617569740117,127.11649843022664C386.2119789740117,126.98886143022662 388.4699779740117,127.14583543022664 389.9641899740118,127.9268634302266C390.0849869740118,130.04409643022663 390.38379197401173,132.21939843022665 389.6765789740117,134.2523744302266C387.7185039740117,135.08965943022662 386.4123739740117,133.45678743022665 385.30799297401165,132.66662443022665C383.6728049740117,132.81486043022664 380.6505979740117,132.23596843022665 378.40531597401167,132.97755543022663C378.16313197401155,135.13714343022662 378.3990969740116,137.57597543022663 378.0788379740118,139.60039343022663C378.81411297401166,141.61661943022665 382.1529249740116,140.54984643022664 383.6440279740117,140.8477634302266C385.8540819740117,141.89623143022663 385.25499497401165,145.57784743022663 383.44240397401165,146.2076854302266C381.0848919740116,146.3832924302266 380.4891779740116,145.90839243022666 378.2343039740118,146.48752443022664C377.56098197401167,147.8482394302266 378.42650597401166,149.24450943022663 377.9389189740117,150.70064443022665ZM332.2786449740116,148.0421814302266C332.64481297401164,150.70255843022665 332.0789339740117,151.81689843022664 332.3874709740117,153.9654234302266C334.60574897401176,154.5998634302266 336.98619297401183,155.6819714302266 335.7299829740116,158.69158143022662C335.73153797401176,161.6809044302266 331.3719529740117,159.43590743022662 329.6357279740117,160.2617844302266C327.6468239740117,160.13004243022664 326.1109009740117,160.45933143022663 323.91459097401173,159.9508534302266C322.0563709740117,158.16269643022662 323.63426997401166,153.75364243022662 326.01337697401163,154.63392643022667C327.60318497401175,154.50597843022666 326.97726497401163,152.60772743022665 326.97726497401163,150.2154994302267C326.5838129740116,147.95633343022672 326.78448697401166,146.26652643022663 326.97726497401163,143.42484943022663C326.8412319740116,139.60039343022663 327.7968489740117,131.3342484302266 325.0028499740117,132.18468043022665C322.01652497401176,132.2225364302266 322.3540569740117,125.48936643022662 325.5314339740117,126.63455543022664C327.14847897401154,126.1679014302266 328.81444897401184,127.04134643022664 330.52188297401165,126.47908943022662C332.2594759740116,127.22162343022663 335.55547297401165,125.31355843022664 335.48123797401166,127.81609443022663C336.83176897401165,131.55059443022662 334.4165779740118,132.21457143022658 332.1076329740116,132.60443743022665C332.1413689740117,134.32424443022657 332.11540597401165,135.55602343022662 332.1076329740116,137.4394204302266C332.0936409740117,138.53650343022662 332.38109697401154,145.3223304302266 332.2786449740116,148.0421814302266ZM458.56342697401175,156.39068843022665C460.1126269740116,154.10329743022663 463.31839197401166,155.68961743022666 462.2013249740117,151.78890443022664C461.95906796665486,149.81786956115639 463.18631109276737,138.4317116048372 462.2013249740117,134.12800143022667C461.98974469158634,133.181412515736 461.3910743702713,132.56580918205313 460.9575989740116,132.48006543022663C458.5923279740117,133.23389543022665 458.1189979740117,130.54890443022663 458.6722529740116,128.45350343022662C458.87830797401165,125.73907543022668 462.35050897401163,127.51139843022662 463.5927429740117,126.90467643022663C465.7835339740117,127.3466564302266 467.6401989740116,126.7088664302266 470.3632729740117,126.99212643022665C471.30488297401166,128.62876643022662 472.0525329740117,132.6863154302266 468.8708029740116,132.6199844302266C466.08529297401157,131.28448843022665 467.33169197401185,135.44932143022663 467.3316919740118,137.28395543022663C467.56344497401165,139.64731043022664 467.6956379740117,149.67392243022664 467.62707697401163,151.55570543022662C466.43317797401164,154.1839864302266 468.74206197401173,155.52069043022667 470.64311197401173,155.64834043022663C471.32600997401164,157.4285124302266 471.65996597401147,160.68887043022661 469.5587389740116,160.75344443022664C466.76228397401155,160.56433043022662 464.2875339740116,160.33631143022663 461.1907979740117,160.79036743022664C458.9285069740116,160.7667524302266 458.20291929011705,159.6554684302266 458.56342697401175,157.04364443022664L458.56342697401175,156.39068843022665Z" fill-rule="evenodd"></path></svg>